ply
format ascii 1.0
comment VTK generated PLY File
obj_info vtkPolyData points and polygons: vtk4.0
element vertex 347
property float x
property float y
property float z
element face 576
property list uchar int vertex_indices
end_header
4 0 0 
3.86602 0 0.5 
3.5 0 0.866025 
3 0 1 
2.5 0 0.866025 
2.13398 0 0.5 
2 0 -8.74228e-08 
2.13398 0 -0.5 
2.5 0 -0.866025 
3 0 -1 
3.5 0 -0.866025 
3.86602 0 -0.5 
3.8637 1.03528 0 
3.73429 1.0006 0.5 
3.38074 0.905867 0.866025 
2.89778 0.776457 1 
2.41481 0.647048 0.866025 
2.06126 0.552313 0.5 
1.93185 0.517638 -8.74228e-08 
2.06126 0.552313 -0.5 
2.41481 0.647048 -0.866025 
2.89778 0.776457 -1 
3.38074 0.905867 -0.866025 
3.73429 1.0006 -0.5 
3.4641 2 0 
3.34808 1.93301 0.5 
3.03109 1.75 0.866025 
2.59808 1.5 1 
2.16506 1.25 0.866025 
1.84808 1.06699 0.5 
1.73205 1 -8.74228e-08 
1.84808 1.06699 -0.5 
2.16506 1.25 -0.866025 
2.59808 1.5 -1 
3.03109 1.75 -0.866025 
3.34808 1.93301 -0.5 
2.82843 2.82843 0 
2.73369 2.73369 0.5 
2.47487 2.47487 0.866025 
2.12132 2.12132 1 
1.76777 1.76777 0.866025 
1.50895 1.50895 0.5 
1.41421 1.41421 -8.74228e-08 
1.50895 1.50895 -0.5 
1.76777 1.76777 -0.866025 
2.12132 2.12132 -1 
2.47487 2.47487 -0.866025 
2.73369 2.73369 -0.5 
2 3.4641 0 
1.93301 3.34808 0.5 
1.75 3.03109 0.866025 
1.5 2.59808 1 
1.25 2.16506 0.866025 
1.06699 1.84808 0.5 
1 1.73205 -8.74228e-08 
1.06699 1.84808 -0.5 
1.25 2.16506 -0.866025 
1.5 2.59808 -1 
1.75 3.03109 -0.866025 
1.93301 3.34808 -0.5 
1.03528 3.8637 0 
1.0006 3.73429 0.5 
0.905867 3.38074 0.866025 
0.776457 2.89778 1 
0.647048 2.41481 0.866025 
0.552313 2.06126 0.5 
0.517638 1.93185 -8.74228e-08 
0.552313 2.06126 -0.5 
0.647048 2.41481 -0.866025 
0.776457 2.89778 -1 
0.905867 3.38074 -0.866025 
1.0006 3.73429 -0.5 
-1.74846e-07 4 0 
-1.68989e-07 3.86602 0.5 
-1.5299e-07 3.5 0.866025 
-1.31134e-07 3 1 
-1.09279e-07 2.5 0.866025 
-9.3279e-08 2.13398 0.5 
-8.74228e-08 2 -8.74228e-08 
-9.3279e-08 2.13398 -0.5 
-1.09279e-07 2.5 -0.866025 
-1.31134e-07 3 -1 
-1.5299e-07 3.5 -0.866025 
-1.68989e-07 3.86602 -0.5 
-1.03528 3.8637 0 
-1.0006 3.73429 0.5 
-0.905867 3.38074 0.866025 
-0.776457 2.89778 1 
-0.647048 2.41481 0.866025 
-0.552314 2.06126 0.5 
-0.517638 1.93185 -8.74228e-08 
-0.552314 2.06126 -0.5 
-0.647048 2.41481 -0.866025 
-0.776457 2.89778 -1 
-0.905867 3.38074 -0.866025 
-1.0006 3.73429 -0.5 
-2 3.4641 0 
-1.93301 3.34808 0.5 
-1.75 3.03109 0.866025 
-1.5 2.59808 1 
-1.25 2.16506 0.866025 
-1.06699 1.84808 0.5 
-1 1.73205 -8.74228e-08 
-1.06699 1.84808 -0.5 
-1.25 2.16506 -0.866025 
-1.5 2.59808 -1 
-1.75 3.03109 -0.866025 
-1.93301 3.34808 -0.5 
-2.82843 2.82843 0 
-2.73369 2.73369 0.5 
-2.47487 2.47487 0.866025 
-2.12132 2.12132 1 
-1.76777 1.76777 0.866025 
-1.50895 1.50895 0.5 
-1.41421 1.41421 -8.74228e-08 
-1.50895 1.50895 -0.5 
-1.76777 1.76777 -0.866025 
-2.12132 2.12132 -1 
-2.47487 2.47487 -0.866025 
-2.73369 2.73369 -0.5 
-3.4641 2 0 
-3.34808 1.93301 0.5 
-3.03109 1.75 0.866025 
-2.59808 1.5 1 
-2.16506 1.25 0.866025 
-1.84808 1.06699 0.5 
-1.73205 1 -8.74228e-08 
-1.84808 1.06699 -0.5 
-2.16506 1.25 -0.866025 
-2.59808 1.5 -1 
-3.03109 1.75 -0.866025 
-3.34808 1.93301 -0.5 
-3.8637 1.03528 0 
-3.73429 1.0006 0.5 
-3.38074 0.905866 0.866025 
-2.89778 0.776457 1 
-2.41481 0.647047 0.866025 
-2.06126 0.552313 0.5 
-1.93185 0.517638 -8.74228e-08 
-2.06126 0.552313 -0.5 
-2.41481 0.647047 -0.866025 
-2.89778 0.776457 -1 
-3.38074 0.905866 -0.866025 
-3.73429 1.0006 -0.5 
-4 -3.49691e-07 0 
-3.86602 -3.37979e-07 0.5 
-3.5 -3.0598e-07 0.866025 
-3 -2.62268e-07 1 
-2.5 -2.18557e-07 0.866025 
-2.13398 -1.86558e-07 0.5 
-2 -1.74846e-07 -8.74228e-08 
-2.13398 -1.86558e-07 -0.5 
-2.5 -2.18557e-07 -0.866025 
-3 -2.62268e-07 -1 
-3.5 -3.0598e-07 -0.866025 
-3.86602 -3.37979e-07 -0.5 
-3.8637 -1.03528 0 
-3.73429 -1.0006 0.5 
-3.38074 -0.905867 0.866025 
-2.89778 -0.776457 1 
-2.41481 -0.647048 0.866025 
-2.06126 -0.552313 0.5 
-1.93185 -0.517638 -8.74228e-08 
-2.06126 -0.552313 -0.5 
-2.41481 -0.647048 -0.866025 
-2.89778 -0.776457 -1 
-3.38074 -0.905867 -0.866025 
-3.73429 -1.0006 -0.5 
-3.4641 -2 0 
-3.34808 -1.93301 0.5 
-3.03109 -1.75 0.866025 
-2.59808 -1.5 1 
-2.16506 -1.25 0.866025 
-1.84808 -1.06699 0.5 
-1.73205 -1 -8.74228e-08 
-1.84808 -1.06699 -0.5 
-2.16506 -1.25 -0.866025 
-2.59808 -1.5 -1 
-3.03109 -1.75 -0.866025 
-3.34808 -1.93301 -0.5 
-2.82843 -2.82843 0 
-2.73369 -2.73369 0.5 
-2.47487 -2.47487 0.866025 
-2.12132 -2.12132 1 
-1.76777 -1.76777 0.866025 
-1.50895 -1.50895 0.5 
-1.41421 -1.41421 -8.74228e-08 
-1.50895 -1.50895 -0.5 
-1.76777 -1.76777 -0.866025 
-2.12132 -2.12132 -1 
-2.47487 -2.47487 -0.866025 
-2.73369 -2.73369 -0.5 
-2 -3.4641 0 
-1.93301 -3.34808 0.5 
-1.75 -3.03109 0.866025 
-1.5 -2.59808 1 
-1.25 -2.16506 0.866025 
-1.06699 -1.84808 0.5 
-1 -1.73205 -8.74228e-08 
-1.06699 -1.84808 -0.5 
-1.25 -2.16506 -0.866025 
-1.5 -2.59808 -1 
-1.75 -3.03109 -0.866025 
-1.93301 -3.34808 -0.5 
-1.03528 -3.8637 0 
-1.0006 -3.73429 0.5 
-0.905866 -3.38074 0.866025 
-0.776457 -2.89778 1 
-0.647048 -2.41481 0.866025 
-0.552313 -2.06126 0.5 
-0.517638 -1.93185 -8.74228e-08 
-0.552313 -2.06126 -0.5 
-0.647048 -2.41481 -0.866025 
-0.776457 -2.89778 -1 
-0.905866 -3.38074 -0.866025 
-1.0006 -3.73429 -0.5 
4.76995e-08 -4 0 
4.61019e-08 -3.86602 0.5 
4.17371e-08 -3.5 0.866025 
3.57746e-08 -3 1 
2.98122e-08 -2.5 0.866025 
2.54474e-08 -2.13398 0.5 
2.38498e-08 -2 -8.74228e-08 
2.54474e-08 -2.13398 -0.5 
2.98122e-08 -2.5 -0.866025 
3.57746e-08 -3 -1 
4.17371e-08 -3.5 -0.866025 
4.61019e-08 -3.86602 -0.5 
1.03528 -3.8637 0 
1.0006 -3.73429 0.5 
0.905867 -3.38074 0.866025 
0.776457 -2.89778 1 
0.647048 -2.41481 0.866025 
0.552313 -2.06126 0.5 
0.517638 -1.93185 -8.74228e-08 
0.552313 -2.06126 -0.5 
0.647048 -2.41481 -0.866025 
0.776457 -2.89778 -1 
0.905867 -3.38074 -0.866025 
1.0006 -3.73429 -0.5 
2 -3.4641 0 
1.93301 -3.34808 0.5 
1.75 -3.03109 0.866025 
1.5 -2.59808 1 
1.25 -2.16506 0.866025 
1.06699 -1.84808 0.5 
1 -1.73205 -8.74228e-08 
1.06699 -1.84808 -0.5 
1.25 -2.16506 -0.866025 
1.5 -2.59808 -1 
1.75 -3.03109 -0.866025 
1.93301 -3.34808 -0.5 
2.82843 -2.82843 0 
2.73369 -2.73369 0.5 
2.47487 -2.47487 0.866025 
2.12132 -2.12132 1 
1.76777 -1.76777 0.866025 
1.50895 -1.50895 0.5 
1.41421 -1.41421 -8.74228e-08 
1.50895 -1.50895 -0.5 
1.76777 -1.76777 -0.866025 
2.12132 -2.12132 -1 
2.47487 -2.47487 -0.866025 
2.73369 -2.73369 -0.5 
3.4641 -2 0 
3.34808 -1.93301 0.5 
3.03109 -1.75 0.866025 
2.59808 -1.5 1 
2.16506 -1.25 0.866025 
1.84808 -1.06699 0.5 
1.73205 -1 -8.74228e-08 
1.84808 -1.06699 -0.5 
2.16506 -1.25 -0.866025 
2.59808 -1.5 -1 
3.03109 -1.75 -0.866025 
3.34808 -1.93301 -0.5 
3.8637 -1.03527 0 
3.73429 -1.0006 0.5 
3.38074 -0.905866 0.866025 
2.89778 -0.776456 1 
2.41481 -0.647047 0.866025 
2.06126 -0.552313 0.5 
1.93185 -0.517638 -8.74228e-08 
2.06126 -0.552313 -0.5 
2.41481 -0.647047 -0.866025 
2.89778 -0.776456 -1 
3.38074 -0.905866 -0.866025 
3.73429 -1.0006 -0.5 
-0.900519 -2.23122 -0.324174 
-3.3409 -0.410321 -0.523015 
-1.06274 2.2646 0.248492 
-1.31535 1.69384 -0.305188 
-0.389818 3.25028 -0.522277 
-2.17443 0.900677 0.335003 
-1.83508 1.4081 0.355962 
-2.45708 -0.334787 0.780958 
-3.35719 0.383497 0.573778 
-3.23176 -1.20071 -0.2398 
-1.83444 -1.43311 0.6477 
1.84481 -2.44574 0.520729 
2.20084 0.949227 0.327663 
0.913692 -2.22078 0.377298 
0.450516 -3.36043 -0.500603 
2.0131 2.63613 0.516486 
1.45358 1.92479 0.306917 
0.396957 3.47332 0.40795 
0.95199 2.18303 -0.33624 
2.78433 1.13244 -0.606814 
1.96063 1.54957 -0.318236 
3.47144 0.416584 -0.465833 
2.14747 -0.283207 0.22694 
3.32412 -1.2352 0.149435 
2.47792 -1.8621 -0.636294 
-0.411033 -3.55628 -0.0721949 
-3 -0.394959 0.796949 
0.394958 -3 0.79695 
1.58042 -3.2606 -0.354478 
3.0135 1.12338 0.752274 
-3.26708 1.26767 0.483854 
-2.5344 2.255 -0.223214 
-2.75873 0.236459 -0.740832 
1.02166 2.69815 -0.522822 
2.23228 2.40685 -0.161864 
2.89834 -1.44957 0.40672 
3.11646 -0.860244 -0.434622 
3.1977 0.259224 -5e-08 
0.791056 -2.80561 0.318154 
-2.18875 -1.67948 -0.458559 
-0.791422 2.89377 1.26678e-06 
-0.79142 -2.89376 -2.01789e-06 
2.11047 -2.13217 -0.278462 
2.58664 1.49746 -0.00299555 
-1.74399 2.27281 0.383139 
-2.75733 -1.14212 0.450503 
-2.47634 -2.1428 0.131711 
-2.75559 -0.362781 -0.121416 
-2.62849 1.08876 -0.142163 
0.20822 2.88325 0.0287959 
-1.62913 2.45479 -0.419527 
-3.31672 0.417128 -0.170687 
1.46676 2.46488 0.131966 
-2.1223 1.6285 -0.0719559 
2.60358 0.777676 0.0760591 
-1.3497 -2.39442 -0.067396 
1.32635 -2.37778 0.0743852 
0.0661981 -3.0038 -0.128389 
2.94321 -0.472394 0.265392 
3 0 1 13 
3 0 1 276 
3 0 11 12 
3 0 11 287 
3 0 12 13 
3 0 276 287 
3 1 2 14 
3 1 2 277 
3 1 13 14 
3 1 276 277 
3 2 3 15 
3 2 3 278 
3 2 14 15 
3 2 277 278 
3 3 4 16 
3 3 4 279 
3 3 15 16 
3 3 278 279 
3 4 5 17 
3 4 5 280 
3 4 16 17 
3 4 279 280 
3 5 6 18 
3 5 6 281 
3 5 17 18 
3 5 280 281 
3 6 7 19 
3 6 7 282 
3 6 18 19 
3 6 281 282 
3 7 8 20 
3 7 8 283 
3 7 19 20 
3 7 282 283 
3 8 9 21 
3 8 9 284 
3 8 20 21 
3 8 283 284 
3 9 10 22 
3 9 10 285 
3 9 21 22 
3 9 284 285 
3 10 11 23 
3 10 11 286 
3 10 22 23 
3 10 285 286 
3 11 12 23 
3 11 286 287 
3 12 13 25 
3 12 23 24 
3 12 24 25 
3 13 14 26 
3 13 25 26 
3 14 15 27 
3 14 26 27 
3 15 16 28 
3 15 27 28 
3 16 17 29 
3 16 28 29 
3 17 18 30 
3 17 29 30 
3 18 19 31 
3 18 30 31 
3 19 20 32 
3 19 31 32 
3 20 21 33 
3 20 32 33 
3 21 22 34 
3 21 33 34 
3 22 23 35 
3 22 34 35 
3 23 24 35 
3 24 25 37 
3 24 35 36 
3 24 36 37 
3 25 26 38 
3 25 37 38 
3 26 27 39 
3 26 38 39 
3 27 28 40 
3 27 39 40 
3 28 29 41 
3 28 40 41 
3 29 30 42 
3 29 41 42 
3 30 31 43 
3 30 42 43 
3 31 32 44 
3 31 43 44 
3 32 33 45 
3 32 44 45 
3 33 34 46 
3 33 45 46 
3 34 35 47 
3 34 46 47 
3 35 36 47 
3 36 37 49 
3 36 47 48 
3 36 48 49 
3 37 38 50 
3 37 49 50 
3 38 39 51 
3 38 50 51 
3 39 40 52 
3 39 51 52 
3 40 41 53 
3 40 52 53 
3 41 42 54 
3 41 53 54 
3 42 43 55 
3 42 54 55 
3 43 44 56 
3 43 55 56 
3 44 45 57 
3 44 56 57 
3 45 46 58 
3 45 57 58 
3 46 47 59 
3 46 58 59 
3 47 48 59 
3 48 49 61 
3 48 59 60 
3 48 60 61 
3 49 50 62 
3 49 61 62 
3 50 51 63 
3 50 62 63 
3 51 52 64 
3 51 63 64 
3 52 53 65 
3 52 64 65 
3 53 54 66 
3 53 65 66 
3 54 55 67 
3 54 66 67 
3 55 56 68 
3 55 67 68 
3 56 57 69 
3 56 68 69 
3 57 58 70 
3 57 69 70 
3 58 59 71 
3 58 70 71 
3 59 60 71 
3 60 61 73 
3 60 71 72 
3 60 72 73 
3 61 62 74 
3 61 73 74 
3 62 63 75 
3 62 74 75 
3 63 64 76 
3 63 75 76 
3 64 65 77 
3 64 76 77 
3 65 66 78 
3 65 77 78 
3 66 67 79 
3 66 78 79 
3 67 68 80 
3 67 79 80 
3 68 69 81 
3 68 80 81 
3 69 70 82 
3 69 81 82 
3 70 71 83 
3 70 82 83 
3 71 72 83 
3 72 73 85 
3 72 83 84 
3 72 84 85 
3 73 74 86 
3 73 85 86 
3 74 75 87 
3 74 86 87 
3 75 76 88 
3 75 87 88 
3 76 77 89 
3 76 88 89 
3 77 78 90 
3 77 89 90 
3 78 79 91 
3 78 90 91 
3 79 80 92 
3 79 91 92 
3 80 81 93 
3 80 92 93 
3 81 82 94 
3 81 93 94 
3 82 83 95 
3 82 94 95 
3 83 84 95 
3 84 85 97 
3 84 95 96 
3 84 96 97 
3 85 86 98 
3 85 97 98 
3 86 87 99 
3 86 98 99 
3 87 88 100 
3 87 99 100 
3 88 89 101 
3 88 100 101 
3 89 90 102 
3 89 101 102 
3 90 91 103 
3 90 102 103 
3 91 92 104 
3 91 103 104 
3 92 93 105 
3 92 104 105 
3 93 94 106 
3 93 105 106 
3 94 95 107 
3 94 106 107 
3 95 96 107 
3 96 97 109 
3 96 107 108 
3 96 108 109 
3 97 98 110 
3 97 109 110 
3 98 99 111 
3 98 110 111 
3 99 100 112 
3 99 111 112 
3 100 101 113 
3 100 112 113 
3 101 102 114 
3 101 113 114 
3 102 103 115 
3 102 114 115 
3 103 104 116 
3 103 115 116 
3 104 105 117 
3 104 116 117 
3 105 106 118 
3 105 117 118 
3 106 107 119 
3 106 118 119 
3 107 108 119 
3 108 109 121 
3 108 119 120 
3 108 120 121 
3 109 110 122 
3 109 121 122 
3 110 111 123 
3 110 122 123 
3 111 112 124 
3 111 123 124 
3 112 113 125 
3 112 124 125 
3 113 114 126 
3 113 125 126 
3 114 115 127 
3 114 126 127 
3 115 116 128 
3 115 127 128 
3 116 117 129 
3 116 128 129 
3 117 118 130 
3 117 129 130 
3 118 119 131 
3 118 130 131 
3 119 120 131 
3 120 121 133 
3 120 131 132 
3 120 132 133 
3 121 122 134 
3 121 133 134 
3 122 123 135 
3 122 134 135 
3 123 124 136 
3 123 135 136 
3 124 125 137 
3 124 136 137 
3 125 126 138 
3 125 137 138 
3 126 127 139 
3 126 138 139 
3 127 128 140 
3 127 139 140 
3 128 129 141 
3 128 140 141 
3 129 130 142 
3 129 141 142 
3 130 131 143 
3 130 142 143 
3 131 132 143 
3 132 133 145 
3 132 143 144 
3 132 144 145 
3 133 134 146 
3 133 145 146 
3 134 135 147 
3 134 146 147 
3 135 136 148 
3 135 147 148 
3 136 137 149 
3 136 148 149 
3 137 138 150 
3 137 149 150 
3 138 139 151 
3 138 150 151 
3 139 140 152 
3 139 151 152 
3 140 141 153 
3 140 152 153 
3 141 142 154 
3 141 153 154 
3 142 143 155 
3 142 154 155 
3 143 144 155 
3 144 145 157 
3 144 155 156 
3 144 156 157 
3 145 146 158 
3 145 157 158 
3 146 147 159 
3 146 158 159 
3 147 148 160 
3 147 159 160 
3 148 149 161 
3 148 160 161 
3 149 150 162 
3 149 161 162 
3 150 151 163 
3 150 162 163 
3 151 152 164 
3 151 163 164 
3 152 153 165 
3 152 164 165 
3 153 154 166 
3 153 165 166 
3 154 155 167 
3 154 166 167 
3 155 156 167 
3 156 157 169 
3 156 167 168 
3 156 168 169 
3 157 158 170 
3 157 169 170 
3 158 159 171 
3 158 170 171 
3 159 160 172 
3 159 171 172 
3 160 161 173 
3 160 172 173 
3 161 162 174 
3 161 173 174 
3 162 163 175 
3 162 174 175 
3 163 164 176 
3 163 175 176 
3 164 165 177 
3 164 176 177 
3 165 166 178 
3 165 177 178 
3 166 167 179 
3 166 178 179 
3 167 168 179 
3 168 169 181 
3 168 179 180 
3 168 180 181 
3 169 170 182 
3 169 181 182 
3 170 171 183 
3 170 182 183 
3 171 172 184 
3 171 183 184 
3 172 173 185 
3 172 184 185 
3 173 174 186 
3 173 185 186 
3 174 175 187 
3 174 186 187 
3 175 176 188 
3 175 187 188 
3 176 177 189 
3 176 188 189 
3 177 178 190 
3 177 189 190 
3 178 179 191 
3 178 190 191 
3 179 180 191 
3 180 181 193 
3 180 191 192 
3 180 192 193 
3 181 182 194 
3 181 193 194 
3 182 183 195 
3 182 194 195 
3 183 184 196 
3 183 195 196 
3 184 185 197 
3 184 196 197 
3 185 186 198 
3 185 197 198 
3 186 187 199 
3 186 198 199 
3 187 188 200 
3 187 199 200 
3 188 189 201 
3 188 200 201 
3 189 190 202 
3 189 201 202 
3 190 191 203 
3 190 202 203 
3 191 192 203 
3 192 193 205 
3 192 203 204 
3 192 204 205 
3 193 194 206 
3 193 205 206 
3 194 195 207 
3 194 206 207 
3 195 196 208 
3 195 207 208 
3 196 197 209 
3 196 208 209 
3 197 198 210 
3 197 209 210 
3 198 199 211 
3 198 210 211 
3 199 200 212 
3 199 211 212 
3 200 201 213 
3 200 212 213 
3 201 202 214 
3 201 213 214 
3 202 203 215 
3 202 214 215 
3 203 204 215 
3 204 205 217 
3 204 215 216 
3 204 216 217 
3 205 206 218 
3 205 217 218 
3 206 207 219 
3 206 218 219 
3 207 208 220 
3 207 219 220 
3 208 209 221 
3 208 220 221 
3 209 210 222 
3 209 221 222 
3 210 211 223 
3 210 222 223 
3 211 212 224 
3 211 223 224 
3 212 213 225 
3 212 224 225 
3 213 214 226 
3 213 225 226 
3 214 215 227 
3 214 226 227 
3 215 216 227 
3 216 217 229 
3 216 227 228 
3 216 228 229 
3 217 218 230 
3 217 229 230 
3 218 219 231 
3 218 230 231 
3 219 220 232 
3 219 231 232 
3 220 221 233 
3 220 232 233 
3 221 222 234 
3 221 233 234 
3 222 223 235 
3 222 234 235 
3 223 224 236 
3 223 235 236 
3 224 225 237 
3 224 236 237 
3 225 226 238 
3 225 237 238 
3 226 227 239 
3 226 238 239 
3 227 228 239 
3 228 229 241 
3 228 239 240 
3 228 240 241 
3 229 230 242 
3 229 241 242 
3 230 231 243 
3 230 242 243 
3 231 232 244 
3 231 243 244 
3 232 233 245 
3 232 244 245 
3 233 234 246 
3 233 245 246 
3 234 235 247 
3 234 246 247 
3 235 236 248 
3 235 247 248 
3 236 237 249 
3 236 248 249 
3 237 238 250 
3 237 249 250 
3 238 239 251 
3 238 250 251 
3 239 240 251 
3 240 241 253 
3 240 251 252 
3 240 252 253 
3 241 242 254 
3 241 253 254 
3 242 243 255 
3 242 254 255 
3 243 244 256 
3 243 255 256 
3 244 245 257 
3 244 256 257 
3 245 246 258 
3 245 257 258 
3 246 247 259 
3 246 258 259 
3 247 248 260 
3 247 259 260 
3 248 249 261 
3 248 260 261 
3 249 250 262 
3 249 261 262 
3 250 251 263 
3 250 262 263 
3 251 252 263 
3 252 253 265 
3 252 263 264 
3 252 264 265 
3 253 254 266 
3 253 265 266 
3 254 255 267 
3 254 266 267 
3 255 256 268 
3 255 267 268 
3 256 257 269 
3 256 268 269 
3 257 258 270 
3 257 269 270 
3 258 259 271 
3 258 270 271 
3 259 260 272 
3 259 271 272 
3 260 261 273 
3 260 272 273 
3 261 262 274 
3 261 273 274 
3 262 263 275 
3 262 274 275 
3 263 264 275 
3 264 265 277 
3 264 275 276 
3 264 276 277 
3 265 266 278 
3 265 277 278 
3 266 267 279 
3 266 278 279 
3 267 268 280 
3 267 279 280 
3 268 269 281 
3 268 280 281 
3 269 270 282 
3 269 281 282 
3 270 271 283 
3 270 282 283 
3 271 272 284 
3 271 283 284 
3 272 273 285 
3 272 284 285 
3 273 274 286 
3 273 285 286 
3 274 275 287 
3 274 286 287 
3 275 276 287 
