ply
format ascii 1.0
comment VTK generated PLY File
obj_info vtkPolyData points and polygons: vtk4.0
element vertex 8
property float x
property float y
property float z
element face 8
property list uchar int vertex_indices
end_header
-0.186886 2.86356 0.990505 
0.00122815 2.86992 0.990505 
-1.31134e-07 3 1 
-0.207333 2.91867 0.664004 
-0.195862 2.99337 1 
0.00122815 3.13008 0.990505 
-0.20325 3.12325 0.990505 
0.0491811 3.08281 0.69217 
3 0 1 2 
3 0 2 3 
3 0 3 1 
3 2 1 3 
3 4 5 6 
3 4 6 7 
3 4 7 5 
3 6 5 7 
